<?xml version="1.0" encoding="utf-8" ?><svg xmlns="http://www.w3.org/2000/svg" xmlns:xlink="http://www.w3.org/1999/xlink" width="1024" height="1024" viewBox="0 0 1024 1024"><defs><linearGradient id="gradient_0" gradientUnits="userSpaceOnUse" x1="266.7121" y1="87.604126" x2="244.97163" y2="430.52106"><stop offset="0" stop-color="#FF5AF0"/><stop offset="1" stop-color="#2AA9F3"/></linearGradient></defs><path fill="url(#gradient_0)" transform="scale(2 2)" d="M75.8221 214.923C75.6899 212.815 75.8131 208.931 75.8158 206.684L75.8093 168.777C75.7974 138.338 82.548 115.866 109.843 97.4932C136.331 80.9148 156.42 84.2825 186.663 84.2647L203.638 84.2618C235.661 84.2689 258.284 94.5388 276.638 122.652C278.914 120.651 290.762 121.558 294.216 121.558L346.923 121.556C352.454 121.553 358.57 121.36 364.013 121.771C403.525 124.75 434.567 158.268 436.716 197.465C437.934 219.659 436.414 243.649 436.844 266.073C436.469 269.558 436.849 279.475 436.849 283.414L436.846 329.007C436.844 345.131 437.322 360.697 431.081 375.915C418.82 402.259 395.114 421.232 365.47 424.294C351.391 425.748 335.116 424.973 320.781 424.974L185.224 424.967C163.946 424.967 142.305 426.977 122.525 417.609C103.764 408.724 89.8135 395.148 81.5969 375.915C75.5717 361.682 75.8096 348.958 75.8132 333.907L75.8221 214.923Z"/><defs><linearGradient id="gradient_1" gradientUnits="userSpaceOnUse" x1="355.1506" y1="262.47015" x2="358.68991" y2="121.93552"><stop offset="0" stop-color="#C6B2F0"/><stop offset="1" stop-color="#F3DCF3"/></linearGradient></defs><path fill="url(#gradient_1)" transform="scale(2 2)" d="M276.638 122.652C278.914 120.651 290.762 121.558 294.216 121.558L346.923 121.556C352.454 121.553 358.57 121.36 364.013 121.771C403.525 124.75 434.567 158.268 436.716 197.465C437.934 219.659 436.414 243.649 436.844 266.073C436.27 265.618 435.719 265.083 435.541 264.358C430.792 245.039 422.287 226.606 406.775 213.558C399.67 201.95 365.417 193.227 352.71 192.803C334.766 192.204 332.523 193.584 315.398 188.113C303.137 180.542 291.603 171.429 288.422 156.163C285.777 143.468 282.839 134.234 276.638 122.652Z"/><path fill="#D468F1" transform="scale(2 2)" d="M315.398 188.113C332.523 193.584 334.766 192.204 352.71 192.803C365.417 193.227 399.67 201.95 406.775 213.558C403.809 213.962 401.963 205.893 394.126 208.022L393.953 207.601C394.107 207.216 394.893 205.999 395.154 205.577L394.921 205.082C392.149 204.778 391.915 206.472 388.802 206.326L388.366 206.952C387.015 206.645 385.716 206.377 384.358 206.109L384.167 206.438L385.316 207.5L385.166 207.756C380.336 206.824 377.85 205.635 374.92 201.469C370.648 195.396 374.979 196.594 365.023 194.638C349.587 191.605 327.627 196.101 315.398 188.113L315.398 188.113Z"/><path fill="#D468F1" transform="scale(2 2)" d="M263.282 188.113C265.378 187.853 266.998 187.004 268.759 188.113C267.71 188.506 264.297 188.713 263.282 188.113Z"/><path fill="#D468F1" transform="scale(2 2)" d="M237.92 191.213L238.667 191.193L238.571 191.287L238.773 191.278C237.713 191.394 237.722 191.424 236.699 191.213C236.333 191.27 236.098 191.28 235.73 191.303L235.853 191.137L237.92 191.213Z"/></svg>